<svg id="Layer_1" data-name="Layer 1" xmlns="http://www.w3.org/2000/svg" viewBox="0 0 1200 249.3"><defs><style>.cls-1{fill:#111;}.cls-2{fill:#008f6e;}</style></defs><path class="cls-1" d="M0,190.44V0H35.56V190.44Z"/><path class="cls-1" d="M50.08,190.44V58.81h32V76.74a43,43,0,0,1,17.2-15.11Q110.41,56,126.43,56,150,56,163.26,68.93t13.24,39.78v81.77H143.3v-77c0-10.08-2.19-17.53-6.56-22.41s-11-7.3-20-7.3q-15.7,0-24.62,10.23c-5.94,6.82-8.87,16.3-8.87,28.44v68.05Z"/><path class="cls-1" d="M256.56,193.26a67,67,0,0,1-33.2-8.25,60.71,60.71,0,0,1-23.6-23.68Q191,145.93,191,124.65T199.76,88a60.75,60.75,0,0,1,23.6-23.67A67,67,0,0,1,256.56,56q15.4,0,26.81,5.31a47.4,47.4,0,0,1,18.07,14.28V0h33.49V190.44H303.17v-19a46,46,0,0,1-18.35,15.82C276.86,191.24,267.41,193.26,256.56,193.26Zm7.55-27.72a39.31,39.31,0,0,0,20.09-5,35.62,35.62,0,0,0,13.69-14.28q5-9.21,4.95-21.57,0-12.62-4.95-21.69A35.81,35.81,0,0,0,284.2,88.8a39.41,39.41,0,0,0-20.09-5,40.22,40.22,0,0,0-20.25,5A34.48,34.48,0,0,0,230.16,103c-3.21,6.06-4.78,13.28-4.78,21.69a46.61,46.61,0,0,0,4.78,21.57,34.31,34.31,0,0,0,13.7,14.28A40.33,40.33,0,0,0,264.11,165.54Z"/><path class="cls-1" d="M422.92,193.26q-21.54,0-38-8.53a65,65,0,0,1-25.94-23.95q-9.46-15.4-9.49-36.13t9.49-36.13a64.86,64.86,0,0,1,25.94-24c11-5.71,23.64-8.52,38-8.52q21.84,0,38.15,8.52a65.21,65.21,0,0,1,25.78,24q9.47,15.41,9.49,36.13T487,160.78a63.62,63.62,0,0,1-25.94,23.95Q444.42,193.24,422.92,193.26Zm0-27.72q11.94,0,20.66-5a35.55,35.55,0,0,0,13.69-14.28q5-9.21,5-21.57,0-12.62-5-21.7A35.79,35.79,0,0,0,443.58,88.8q-8.73-5.05-20.66-5a40.91,40.91,0,0,0-20.55,5A35.74,35.74,0,0,0,388.51,103q-5,9.1-4.95,21.7a45.09,45.09,0,0,0,4.95,21.57,35.57,35.57,0,0,0,13.7,14.28C408.07,163.87,415,165.54,422.92,165.54Z"/><path class="cls-1" d="M688.11,249.3V58.81h32v19A46,46,0,0,1,738.23,62q11.64-6,28-6,18.62,0,33.49,8.25a59.56,59.56,0,0,1,23.43,23.67q8.6,15.42,8.58,36.69c0,14.2-2.89,26.41-8.58,36.68A59.72,59.72,0,0,1,799.69,185q-14.85,8.26-33.49,8.25c-10.32,0-19.23-1.79-26.81-5.31a46.36,46.36,0,0,1-18.07-14.28v75.63H688.11Zm70.82-83.76a39.26,39.26,0,0,0,20.09-5,35.57,35.57,0,0,0,13.7-14.28q4.95-9.21,4.95-21.57,0-12.62-4.95-21.69A35.77,35.77,0,0,0,779,88.8a42.54,42.54,0,0,0-40.17,0A35.84,35.84,0,0,0,725.15,103q-4.95,9.09-4.95,21.69A46.49,46.49,0,0,0,725,146.22a34.22,34.22,0,0,0,13.69,14.28A40.12,40.12,0,0,0,758.93,165.54Z"/><path class="cls-1" d="M846.22,190.44V0h33.2V190.44Z"/><path class="cls-1" d="M967.4,193.26q-21.54,0-38-8.53a65,65,0,0,1-26-23.95q-9.46-15.4-9.48-36.13t9.48-36.13a64.89,64.89,0,0,1,26-24c11-5.71,23.63-8.52,38-8.52q21.84,0,38.15,8.52a65.21,65.21,0,0,1,25.78,24q9.48,15.41,9.45,36.13t-9.32,36.13a63.71,63.71,0,0,1-26,23.95Q989,193.24,967.4,193.26Zm0-27.72q11.94,0,20.66-5a35.57,35.57,0,0,0,13.7-14.28q4.95-9.21,5-21.57,0-12.62-5-21.7a35.81,35.81,0,0,0-13.7-14.15c-5.81-3.37-12.74-5-20.66-5a40.87,40.87,0,0,0-20.54,5A35.31,35.31,0,0,0,933,103q-4.95,9.1-4.95,21.7A45.09,45.09,0,0,0,933,146.22a35.62,35.62,0,0,0,13.69,14.28Q955.46,165.56,967.4,165.54Z"/><path class="cls-1" d="M1055.3,190.44V58.81h33.2V190.44Zm33.2-163.55h-33.2V0h33.2Z"/><path class="cls-1" d="M1177,192.15q-23.32,0-34.07-10.07t-10.76-31.37v-65H1103V58.81h29.13V46.32l33.49-32.2V58.81H1200V85.7h-34.36v62.19c0,5.79,1.57,10.11,4.66,13s7.75,4.36,14,4.36c2.31,0,5.11-.08,8.28-.28a56.25,56.25,0,0,0,7.43-.83v25.5a69.48,69.48,0,0,1-10.35,1.83A123.22,123.22,0,0,1,1177,192.15Z"/><polygon class="cls-2" points="536.56 58.81 489.74 58.81 558.22 124.65 429.98 247.91 476.79 247.91 604.99 124.65 536.56 58.81"/><polygon class="cls-2" points="586.86 152.22 626.65 190.44 673.46 190.44 610.24 129.73 586.86 152.22"/><polygon class="cls-2" points="734.63 0 687.82 0 586.85 97.05 610.23 119.58 734.63 0"/></svg>