<svg width="1059" height="453" viewBox="0 0 1059 453" fill="none" xmlns="http://www.w3.org/2000/svg">
<mask id="mask0_748_295" style="mask-type:luminance" maskUnits="userSpaceOnUse" x="78" y="0" width="903" height="453">
<path d="M981 0H78V453H981V0Z" fill="white"/>
</mask>
<g mask="url(#mask0_748_295)">
<path d="M329.014 18.642C329.014 8.34958 337.206 0.00590515 347.311 0.00590515C357.418 0.00590515 365.61 8.34958 365.61 18.642C365.61 28.9345 357.418 37.2782 347.311 37.2782C337.206 37.2782 329.014 28.9345 329.014 18.642Z" fill="#45CF8C"/>
<path d="M393.158 18.6405C393.158 8.34794 401.35 0.00427246 411.457 0.00427246C421.563 0.00427246 429.756 8.34794 429.756 18.6405C429.756 28.9328 421.563 37.2765 411.457 37.2765C401.35 37.2765 393.158 28.9328 393.158 18.6405Z" fill="#45CF8C"/>
<path d="M542.045 226.933C591.397 226.933 627.729 188.388 627.729 142.135V141.518C627.729 94.9572 591.7 57.0297 542.652 57.0297C493.602 57.0297 457.27 95.5738 457.27 142.135V142.752C457.27 189.005 493.299 226.933 542.045 226.933ZM542.652 194.246C514.19 194.246 493.905 170.504 493.905 142.135V141.518C493.905 113.15 512.677 89.7152 542.045 89.7152C570.808 89.7152 591.094 113.458 591.094 142.135V142.752C591.094 170.811 572.322 194.246 542.652 194.246Z" fill="#333333"/>
<path d="M655.256 223.223H691.891V131.335C691.891 106.05 706.727 90.9404 727.922 90.9404C749.721 90.9404 762.134 105.433 762.134 130.718V223.223H798.771V119.309C798.771 81.6898 777.878 57.0215 741.849 57.0215C717.021 57.0215 702.185 70.2806 691.891 85.39V60.4134H655.256V223.223Z" fill="#333333"/>
<path d="M908.336 226.925C937.705 226.925 958.596 214.898 973.735 196.397L952.237 176.97C939.521 189.614 926.804 196.397 908.941 196.397C885.325 196.397 866.857 181.596 862.92 155.078H980.395C980.698 151.378 981.001 147.986 981.001 144.594C981.001 97.7242 955.265 57.0215 904.4 57.0215C858.681 57.0215 826.285 95.2574 826.285 141.819V142.435C826.285 192.696 862.012 226.925 908.336 226.925ZM862.618 130.409C865.947 105.125 881.691 87.5485 904.097 87.5485C928.319 87.5485 942.247 106.358 944.668 130.409H862.618Z" fill="#333333"/>
<path d="M429.741 60.5998H393.143V223.373H429.741V60.5998Z" fill="#333333"/>
<path d="M319.332 273.479C348.985 273.479 365.62 258.391 365.62 225.414V60.4458H329.022V223.257C329.022 237.442 322.059 242.991 311.763 242.991C308.432 242.991 305.103 242.684 301.471 242.066V271.941C307.221 272.864 312.068 273.479 319.332 273.479Z" fill="#333333"/>
<path fill-rule="evenodd" clip-rule="evenodd" d="M231.636 113.741C231.636 102.425 227.221 91.5713 219.364 83.5689C211.506 75.5668 200.849 71.0712 189.738 71.0712L189.737 39.718C215.551 34.4087 238.141 20.0342 254.162 0H301.421V141.191C300.154 187.559 271.654 226.988 231.636 243.477C218.695 248.819 204.552 251.757 189.737 251.757C174.921 251.757 160.778 248.819 147.837 243.477C129.036 235.731 112.777 222.92 100.687 206.702L100.527 206.486C87.1781 188.493 78.9584 166.323 78.0856 142.237H78.0527V0C116.597 0.0254435 147.837 31.8568 147.837 71.1188V135.53V135.667C147.913 159.184 166.659 178.25 189.737 178.25C212.861 178.25 231.636 159.109 231.636 135.53V113.741Z" fill="url(#paint0_linear_748_295)"/>
<path fill-rule="evenodd" clip-rule="evenodd" d="M78.0527 142.237V0C92.4459 0.0095413 105.82 4.45361 116.928 12.0651C135.571 24.8331 147.837 46.5172 147.837 71.119V135.53V135.667C147.913 159.184 166.659 178.25 189.737 178.25C212.063 178.25 230.336 160.406 231.567 137.951C231.788 141.094 231.897 144.273 231.897 147.477C231.897 189.195 213.567 226.549 184.663 251.636C171.69 251.051 159.293 248.207 147.837 243.477C129.036 235.731 112.777 222.92 100.687 206.702L100.527 206.486C87.1781 188.493 78.9584 166.323 78.0856 142.237H78.0527Z" fill="url(#paint1_linear_748_295)"/>
<path d="M128.265 343.3H102.961L98.6134 355.689H88.2656L109.918 294.967H121.396L143.048 355.689H132.613L128.265 343.3ZM125.483 335.186L115.657 307.006L105.744 335.186H125.483ZM162.375 314.684C164.056 312.474 166.346 310.612 169.244 309.1C172.143 307.589 175.418 306.832 179.07 306.832C183.244 306.832 187.041 307.879 190.461 309.973C193.94 312.008 196.664 314.887 198.635 318.61C200.606 322.333 201.592 326.608 201.592 331.435C201.592 336.262 200.606 340.596 198.635 344.434C196.664 348.214 193.94 351.181 190.461 353.333C187.041 355.427 183.244 356.474 179.07 356.474C175.418 356.474 172.172 355.748 169.331 354.293C166.491 352.781 164.172 350.919 162.375 348.709V378.547H152.462V307.617H162.375V314.684ZM191.505 331.435C191.505 328.12 190.809 325.269 189.418 322.885C188.085 320.442 186.288 318.61 184.027 317.389C181.824 316.108 179.447 315.469 176.896 315.469C174.404 315.469 172.027 316.108 169.766 317.389C167.563 318.669 165.766 320.529 164.375 322.972C163.042 325.415 162.375 328.294 162.375 331.609C162.375 334.925 163.042 337.832 164.375 340.334C165.766 342.777 167.563 344.637 169.766 345.918C172.027 347.198 174.404 347.837 176.896 347.837C179.447 347.837 181.824 347.198 184.027 345.918C186.288 344.58 188.085 342.661 189.418 340.159C190.809 337.658 191.505 334.75 191.505 331.435ZM221.308 291.128V355.689H211.395V291.128H221.308ZM239.366 301.248C237.569 301.248 236.061 300.638 234.844 299.416C233.627 298.195 233.018 296.683 233.018 294.88C233.018 293.076 233.627 291.564 234.844 290.343C236.061 289.121 237.569 288.511 239.366 288.511C241.105 288.511 242.583 289.121 243.801 290.343C245.018 291.564 245.627 293.076 245.627 294.88C245.627 296.683 245.018 298.195 243.801 299.416C242.583 300.638 241.105 301.248 239.366 301.248ZM244.235 307.617V355.689H234.322V307.617H244.235ZM276.207 331.697L298.293 355.689H284.902L267.163 335.012V355.689H257.25V291.128H267.163V328.643L284.554 307.617H298.293L276.207 331.697ZM302.094 331.435C302.094 326.608 303.079 322.333 305.051 318.61C307.079 314.887 309.805 312.008 313.225 309.973C316.703 307.879 320.529 306.832 324.703 306.832C328.47 306.832 331.746 307.589 334.529 309.1C337.37 310.555 339.631 312.387 341.311 314.597V307.617H351.311V355.689H341.311V348.535C339.631 350.803 337.34 352.694 334.442 354.206C331.544 355.717 328.239 356.474 324.529 356.474C320.413 356.474 316.644 355.427 313.225 353.333C309.805 351.181 307.079 348.214 305.051 344.434C303.079 340.596 302.094 336.262 302.094 331.435ZM341.311 331.609C341.311 328.294 340.616 325.415 339.224 322.972C337.891 320.529 336.122 318.669 333.92 317.389C331.718 316.108 329.34 315.469 326.79 315.469C324.239 315.469 321.862 316.108 319.659 317.389C317.457 318.61 315.659 320.442 314.268 322.885C312.935 325.269 312.268 328.12 312.268 331.435C312.268 334.75 312.935 337.658 314.268 340.159C315.659 342.661 317.457 344.58 319.659 345.918C321.92 347.198 324.296 347.837 326.79 347.837C329.34 347.837 331.718 347.198 333.92 345.918C336.122 344.637 337.891 342.777 339.224 340.334C340.616 337.832 341.311 334.925 341.311 331.609ZM381.722 356.474C377.955 356.474 374.563 355.805 371.548 354.467C368.592 353.072 366.244 351.211 364.505 348.884C362.766 346.5 361.838 343.852 361.722 340.945H371.983C372.157 342.98 373.114 344.696 374.853 346.092C376.65 347.429 378.881 348.099 381.548 348.099C384.331 348.099 386.476 347.575 387.983 346.528C389.548 345.423 390.331 344.027 390.331 342.341C390.331 340.537 389.461 339.2 387.722 338.327C386.041 337.455 383.346 336.495 379.635 335.448C376.042 334.46 373.114 333.5 370.853 332.569C368.592 331.638 366.62 330.214 364.94 328.294C363.316 326.375 362.505 323.845 362.505 320.704C362.505 318.145 363.259 315.818 364.766 313.724C366.272 311.572 368.418 309.886 371.2 308.664C374.042 307.443 377.287 306.832 380.94 306.832C386.389 306.832 390.765 308.228 394.07 311.02C397.433 313.753 399.229 317.504 399.461 322.274H389.548C389.374 320.122 388.505 318.407 386.939 317.127C385.374 315.847 383.259 315.207 380.592 315.207C377.983 315.207 375.983 315.702 374.592 316.691C373.2 317.679 372.505 318.987 372.505 320.617C372.505 321.897 372.968 322.972 373.896 323.845C374.824 324.717 375.955 325.415 377.287 325.939C378.62 326.403 380.592 327.014 383.2 327.771C386.679 328.702 389.52 329.662 391.722 330.65C393.983 331.581 395.924 332.977 397.548 334.837C399.172 336.698 400.011 339.171 400.07 342.253C400.07 344.986 399.316 347.429 397.809 349.582C396.302 351.734 394.157 353.421 391.374 354.642C388.65 355.863 385.433 356.474 381.722 356.474ZM415.824 301.248C414.028 301.248 412.519 300.638 411.302 299.416C410.085 298.195 409.476 296.683 409.476 294.88C409.476 293.076 410.085 291.564 411.302 290.343C412.519 289.121 414.028 288.511 415.824 288.511C417.563 288.511 419.041 289.121 420.258 290.343C421.476 291.564 422.085 293.076 422.085 294.88C422.085 296.683 421.476 298.195 420.258 299.416C419.041 300.638 417.563 301.248 415.824 301.248ZM420.693 307.617V355.689H410.78V307.617H420.693ZM466.123 295.054V333.703C466.123 338.299 467.311 341.758 469.688 344.085C472.122 346.412 475.485 347.575 479.775 347.575C484.122 347.575 487.485 346.412 489.861 344.085C492.296 341.758 493.513 338.299 493.513 333.703V295.054H503.426V333.529C503.426 338.473 502.355 342.661 500.209 346.092C498.065 349.523 495.196 352.083 491.6 353.77C488.007 355.456 484.035 356.3 479.688 356.3C475.34 356.3 471.37 355.456 467.775 353.77C464.24 352.083 461.427 349.523 459.34 346.092C457.253 342.661 456.21 338.473 456.21 333.529V295.054H466.123ZM521.378 301.248C519.58 301.248 518.073 300.638 516.856 299.416C515.639 298.195 515.03 296.683 515.03 294.88C515.03 293.076 515.639 291.564 516.856 290.343C518.073 289.121 519.58 288.511 521.378 288.511C523.117 288.511 524.595 289.121 525.812 290.343C527.03 291.564 527.639 293.076 527.639 294.88C527.639 296.683 527.03 298.195 525.812 299.416C524.595 300.638 523.117 301.248 521.378 301.248ZM526.247 365.111C526.247 369.822 525.058 373.225 522.682 375.319C520.363 377.471 516.971 378.547 512.508 378.547H507.378V370.171H510.769C512.798 370.171 514.217 369.764 515.03 368.95C515.9 368.193 516.334 366.915 516.334 365.111V307.617H526.247V365.111ZM544.306 301.248C542.508 301.248 541.001 300.638 539.784 299.416C538.566 298.195 537.958 296.683 537.958 294.88C537.958 293.076 538.566 291.564 539.784 290.343C541.001 289.121 542.508 288.511 544.306 288.511C546.045 288.511 547.523 289.121 548.74 290.343C549.958 291.564 550.566 293.076 550.566 294.88C550.566 296.683 549.958 298.195 548.74 299.416C547.523 300.638 546.045 301.248 544.306 301.248ZM549.175 307.617V355.689H539.262V307.617H549.175ZM558.884 331.435C558.884 326.608 559.871 322.333 561.84 318.61C563.871 314.887 566.595 312.008 570.014 309.973C573.493 307.879 577.319 306.832 581.492 306.832C585.262 306.832 588.536 307.589 591.318 309.1C594.159 310.555 596.42 312.387 598.101 314.597V307.617H608.101V355.689H598.101V348.535C596.42 350.803 594.131 352.694 591.231 354.206C588.333 355.717 585.029 356.474 581.319 356.474C577.203 356.474 573.436 355.427 570.014 353.333C566.595 351.181 563.871 348.214 561.84 344.434C559.871 340.596 558.884 336.262 558.884 331.435ZM598.101 331.609C598.101 328.294 597.405 325.415 596.014 322.972C594.681 320.529 592.914 318.669 590.71 317.389C588.507 316.108 586.131 315.469 583.579 315.469C581.029 315.469 578.653 316.108 576.449 317.389C574.247 318.61 572.449 320.442 571.058 322.885C569.725 325.269 569.058 328.12 569.058 331.435C569.058 334.75 569.725 337.658 571.058 340.159C572.449 342.661 574.247 344.58 576.449 345.918C578.71 347.198 581.088 347.837 583.579 347.837C586.131 347.837 588.507 347.198 590.71 345.918C592.914 344.637 594.681 342.777 596.014 340.334C597.405 337.832 598.101 334.925 598.101 331.609ZM645.296 306.832C649.064 306.832 652.426 307.617 655.383 309.188C658.396 310.758 660.744 313.085 662.426 316.167C664.107 319.249 664.948 322.972 664.948 327.334V355.689H655.122V328.818C655.122 324.514 654.048 321.227 651.905 318.959C649.759 316.632 646.831 315.469 643.122 315.469C639.412 315.469 636.455 316.632 634.253 318.959C632.107 321.227 631.035 324.514 631.035 328.818V355.689H621.122V307.617H631.035V313.114C632.657 311.135 634.716 309.595 637.209 308.49C639.759 307.384 642.455 306.832 645.296 306.832ZM727.745 356.3C722.121 356.3 716.934 354.991 712.18 352.374C707.484 349.698 703.745 346.005 700.963 341.294C698.239 336.524 696.876 331.173 696.876 325.241C696.876 319.308 698.239 313.986 700.963 309.275C703.745 304.564 707.484 300.899 712.18 298.282C716.934 295.606 722.121 294.269 727.745 294.269C733.426 294.269 738.614 295.606 743.31 298.282C748.064 300.899 751.803 304.564 754.527 309.275C757.251 313.986 758.614 319.308 758.614 325.241C758.614 331.173 757.251 336.524 754.527 341.294C751.803 346.005 748.064 349.698 743.31 352.374C738.614 354.991 733.426 356.3 727.745 356.3ZM727.745 347.662C731.745 347.662 735.31 346.761 738.441 344.958C741.571 343.097 744.006 340.48 745.745 337.106C747.542 333.675 748.44 329.719 748.44 325.241C748.44 320.763 747.542 316.837 745.745 313.463C744.006 310.089 741.571 307.501 738.441 305.698C735.31 303.894 731.745 302.993 727.745 302.993C723.745 302.993 720.18 303.894 717.049 305.698C713.919 307.501 711.456 310.089 709.658 313.463C707.919 316.837 707.05 320.763 707.05 325.241C707.05 329.719 707.919 333.675 709.658 337.106C711.456 340.48 713.919 343.097 717.049 344.958C720.18 346.761 723.745 347.662 727.745 347.662ZM792.542 306.832C796.311 306.832 799.672 307.617 802.629 309.188C805.644 310.758 807.992 313.085 809.672 316.167C811.354 319.249 812.194 322.972 812.194 327.334V355.689H802.368V328.818C802.368 324.514 801.296 321.227 799.151 318.959C797.007 316.632 794.079 315.469 790.368 315.469C786.659 315.469 783.703 316.632 781.499 318.959C779.355 321.227 778.281 324.514 778.281 328.818V355.689H768.368V307.617H778.281V313.114C779.905 311.135 781.963 309.595 784.455 308.49C787.007 307.384 789.702 306.832 792.542 306.832ZM834.752 291.128V355.689H824.839V291.128H834.752ZM852.811 301.248C851.013 301.248 849.506 300.638 848.289 299.416C847.071 298.195 846.463 296.683 846.463 294.88C846.463 293.076 847.071 291.564 848.289 290.343C849.506 289.121 851.013 288.511 852.811 288.511C854.55 288.511 856.028 289.121 857.245 290.343C858.463 291.564 859.071 293.076 859.071 294.88C859.071 296.683 858.463 298.195 857.245 299.416C856.028 300.638 854.55 301.248 852.811 301.248ZM857.68 307.617V355.689H847.767V307.617H857.68ZM894.869 306.832C898.636 306.832 901.999 307.617 904.955 309.188C907.969 310.758 910.317 313.085 911.999 316.167C913.679 319.249 914.521 322.972 914.521 327.334V355.689H904.695V328.818C904.695 324.514 903.621 321.227 901.477 318.959C899.332 316.632 896.404 315.469 892.695 315.469C888.984 315.469 886.028 316.632 883.825 318.959C881.68 321.227 880.608 324.514 880.608 328.818V355.689H870.695V307.617H880.608V313.114C882.23 311.135 884.288 309.595 886.782 308.49C889.332 307.384 892.027 306.832 894.869 306.832ZM971.077 330.475C971.077 332.279 970.961 333.906 970.729 335.361H934.121C934.412 339.2 935.831 342.282 938.381 344.609C940.933 346.936 944.064 348.099 947.773 348.099C953.107 348.099 956.875 345.859 959.077 341.381H969.772C968.324 345.802 965.686 349.436 961.859 352.286C958.092 355.078 953.396 356.474 947.773 356.474C943.194 356.474 939.077 355.456 935.425 353.421C931.831 351.327 928.99 348.419 926.903 344.696C924.875 340.916 923.86 336.554 923.86 331.609C923.86 326.665 924.846 322.333 926.816 318.61C928.846 314.83 931.657 311.921 935.251 309.886C938.903 307.85 943.077 306.832 947.773 306.832C952.294 306.832 956.324 307.82 959.859 309.798C963.396 311.776 966.15 314.568 968.12 318.174C970.092 321.722 971.077 325.823 971.077 330.475ZM960.729 327.334C960.672 323.67 959.368 320.732 956.816 318.523C954.266 316.313 951.107 315.207 947.338 315.207C943.918 315.207 940.99 316.313 938.555 318.523C936.121 320.675 934.672 323.611 934.208 327.334H960.729Z" fill="#333333"/>
<path d="M438.784 407.244C439.782 405.49 441.245 404.058 443.171 402.949C445.098 401.84 447.292 401.284 449.753 401.284C452.394 401.284 454.765 401.91 456.87 403.163C458.976 404.417 460.634 406.188 461.847 408.478C463.059 410.733 463.666 413.364 463.666 416.371C463.666 419.342 463.059 421.99 461.847 424.317C460.634 426.644 458.957 428.451 456.817 429.739C454.711 431.028 452.357 431.672 449.753 431.672C447.22 431.672 444.991 431.117 443.064 430.008C441.173 428.899 439.747 427.484 438.784 425.766V431.189H433.914V391.459H438.784V407.244ZM458.69 416.371C458.69 414.151 458.243 412.218 457.352 410.572C456.461 408.926 455.247 407.673 453.713 406.814C452.215 405.955 450.556 405.526 448.737 405.526C446.952 405.526 445.294 405.974 443.76 406.868C442.262 407.727 441.049 408.997 440.121 410.68C439.23 412.326 438.784 414.242 438.784 416.424C438.784 418.644 439.23 420.594 440.121 422.277C441.049 423.922 442.262 425.194 443.76 426.088C445.294 426.947 446.952 427.377 448.737 427.377C450.556 427.377 452.215 426.947 453.713 426.088C455.247 425.194 456.461 423.922 457.352 422.277C458.243 420.594 458.69 418.626 458.69 416.371ZM495.333 401.767L477.674 445.041H472.644L478.424 430.867L466.598 401.767H472.002L481.206 425.605L490.303 401.767H495.333ZM553.558 401.767L544.408 431.189H539.378L532.314 407.834L525.251 431.189H520.221L511.017 401.767H515.993L522.736 426.464L530.013 401.767H534.99L542.107 426.518L548.742 401.767H553.558ZM597.454 401.767L588.304 431.189H583.274L576.21 407.834L569.147 431.189H564.117L554.913 401.767H559.889L566.632 426.464L573.909 401.767H578.886L586.003 426.518L592.638 401.767H597.454ZM641.35 401.767L632.199 431.189H627.169L620.106 407.834L613.043 431.189H608.012L598.809 401.767H603.785L610.527 426.464L617.805 401.767H622.782L629.899 426.518L636.534 401.767H641.35ZM647.734 431.511C646.806 431.511 646.022 431.189 645.38 430.545C644.738 429.9 644.417 429.113 644.417 428.182C644.417 427.251 644.738 426.464 645.38 425.82C646.022 425.176 646.806 424.854 647.734 424.854C648.626 424.854 649.375 425.176 649.982 425.82C650.624 426.464 650.945 427.251 650.945 428.182C650.945 429.113 650.624 429.9 649.982 430.545C649.375 431.189 648.626 431.511 647.734 431.511ZM660.039 396.989C659.112 396.989 658.326 396.667 657.684 396.023C657.079 395.378 656.774 394.592 656.774 393.66C656.774 392.729 657.079 391.942 657.684 391.298C658.326 390.654 659.112 390.332 660.039 390.332C660.967 390.332 661.734 390.654 662.34 391.298C662.982 391.942 663.303 392.729 663.303 393.66C663.303 394.592 662.982 395.378 662.34 396.023C661.734 396.667 660.967 396.989 660.039 396.989ZM662.447 437.578C662.447 440.19 661.788 442.106 660.467 443.323C659.147 444.539 657.221 445.148 654.688 445.148H651.851V441.014H653.885C655.241 441.014 656.186 440.746 656.721 440.209C657.293 439.672 657.577 438.759 657.577 437.47V401.767H662.447V437.578ZM697.446 415.351C697.446 416.282 697.393 417.265 697.286 418.304H673.848C674.025 421.203 675.007 423.476 676.791 425.122C678.61 426.733 680.804 427.538 683.373 427.538C685.476 427.538 687.226 427.055 688.617 426.088C690.043 425.087 691.042 423.761 691.614 422.115H696.858C696.072 424.943 694.503 427.251 692.149 429.041C689.794 430.795 686.868 431.672 683.373 431.672C680.59 431.672 678.092 431.046 675.881 429.793C673.704 428.54 671.992 426.768 670.744 424.478C669.495 422.151 668.871 419.466 668.871 416.424C668.871 413.383 669.477 410.715 670.691 408.425C671.903 406.135 673.597 404.38 675.774 403.163C677.985 401.91 680.518 401.284 683.373 401.284C686.155 401.284 688.617 401.893 690.757 403.11C692.898 404.326 694.538 406.009 695.68 408.156C696.858 410.269 697.446 412.666 697.446 415.351ZM692.416 414.331C692.416 412.47 692.005 410.876 691.185 409.552C690.364 408.192 689.241 407.171 687.814 406.492C686.423 405.776 684.871 405.418 683.159 405.418C680.697 405.418 678.592 406.205 676.844 407.781C675.132 409.356 674.151 411.539 673.901 414.331H692.416ZM709.814 405.794V423.136C709.814 424.567 710.117 425.587 710.724 426.196C711.329 426.768 712.383 427.055 713.879 427.055H717.466V431.189H713.078C710.366 431.189 708.332 430.563 706.978 429.31C705.622 428.056 704.944 426 704.944 423.136V405.794H701.145V401.767H704.944V394.358H709.814V401.767H717.466V405.794H709.814ZM736.155 431.672C733.407 431.672 730.911 431.046 728.663 429.793C726.451 428.54 724.703 426.768 723.419 424.478C722.17 422.151 721.546 419.466 721.546 416.424C721.546 413.418 722.188 410.769 723.473 408.478C724.792 406.151 726.576 404.38 728.824 403.163C731.071 401.91 733.586 401.284 736.369 401.284C739.151 401.284 741.667 401.91 743.914 403.163C746.161 404.38 747.927 406.135 749.212 408.425C750.531 410.715 751.191 413.383 751.191 416.424C751.191 419.466 750.513 422.151 749.158 424.478C747.837 426.768 746.036 428.54 743.753 429.793C741.469 431.046 738.937 431.672 736.155 431.672ZM736.155 427.377C737.902 427.377 739.543 426.966 741.078 426.142C742.611 425.318 743.842 424.083 744.77 422.438C745.733 420.792 746.215 418.787 746.215 416.424C746.215 414.062 745.75 412.057 744.824 410.411C743.896 408.765 742.683 407.547 741.185 406.76C739.687 405.937 738.063 405.526 736.315 405.526C734.531 405.526 732.891 405.937 731.392 406.76C729.929 407.547 728.752 408.765 727.861 410.411C726.968 412.057 726.523 414.062 726.523 416.424C726.523 418.822 726.951 420.845 727.807 422.491C728.698 424.137 729.876 425.372 731.339 426.196C732.8 426.983 734.406 427.377 736.155 427.377ZM762.464 406.546C763.32 404.863 764.532 403.558 766.103 402.626C767.708 401.695 769.651 401.23 771.935 401.23V406.277H770.651C765.193 406.277 762.464 409.249 762.464 415.19V431.189H757.594V401.767H762.464V406.546ZM782.425 407.244C783.424 405.49 784.887 404.058 786.813 402.949C788.74 401.84 790.934 401.284 793.395 401.284C796.035 401.284 798.407 401.91 800.512 403.163C802.617 404.417 804.276 406.188 805.489 408.478C806.701 410.733 807.308 413.364 807.308 416.371C807.308 419.342 806.701 421.99 805.489 424.317C804.276 426.644 802.599 428.451 800.458 429.739C798.353 431.028 795.999 431.672 793.395 431.672C790.862 431.672 788.633 431.117 786.706 430.008C784.815 428.899 783.388 427.484 782.425 425.766V431.189H777.556V391.459H782.425V407.244ZM802.331 416.371C802.331 414.151 801.885 412.218 800.994 410.572C800.102 408.926 798.888 407.673 797.355 406.814C795.857 405.955 794.198 405.526 792.378 405.526C790.594 405.526 788.935 405.974 787.402 406.868C785.903 407.727 784.691 408.997 783.763 410.68C782.872 412.326 782.425 414.242 782.425 416.424C782.425 418.644 782.872 420.594 783.763 422.277C784.691 423.922 785.903 425.194 787.402 426.088C788.935 426.947 790.594 427.377 792.378 427.377C794.198 427.377 795.857 426.947 797.355 426.088C798.888 425.194 800.102 423.922 800.994 422.277C801.885 420.594 802.331 418.626 802.331 416.371ZM816.233 396.989C815.304 396.989 814.52 396.667 813.878 396.023C813.236 395.378 812.915 394.592 812.915 393.66C812.915 392.729 813.236 391.942 813.878 391.298C814.52 390.654 815.304 390.332 816.233 390.332C817.124 390.332 817.873 390.654 818.48 391.298C819.122 391.942 819.443 392.729 819.443 393.66C819.443 394.592 819.122 395.378 818.48 396.023C817.873 396.667 817.124 396.989 816.233 396.989ZM818.587 401.767V431.189H813.718V401.767H818.587ZM832.826 405.794V423.136C832.826 424.567 833.129 425.587 833.736 426.196C834.343 426.768 835.395 427.055 836.893 427.055H840.478V431.189H836.09C833.38 431.189 831.346 430.563 829.99 429.31C828.634 428.056 827.957 426 827.957 423.136V405.794H824.157V401.767H827.957V394.358H832.826V401.767H840.478V405.794H832.826ZM847.93 431.511C847.003 431.511 846.217 431.189 845.575 430.545C844.933 429.9 844.612 429.113 844.612 428.182C844.612 427.251 844.933 426.464 845.575 425.82C846.217 425.176 847.003 424.854 847.93 424.854C848.823 424.854 849.572 425.176 850.177 425.82C850.819 426.464 851.14 427.251 851.14 428.182C851.14 429.113 850.819 429.9 850.177 430.545C849.572 431.189 848.823 431.511 847.93 431.511ZM855.794 416.424C855.794 413.383 856.401 410.733 857.613 408.478C858.826 406.188 860.503 404.417 862.643 403.163C864.819 401.91 867.299 401.284 870.081 401.284C873.685 401.284 876.645 402.162 878.964 403.915C881.319 405.668 882.871 408.103 883.62 411.217H878.376C877.876 409.426 876.896 408.014 875.433 406.975C874.006 405.937 872.222 405.418 870.081 405.418C867.299 405.418 865.051 406.385 863.339 408.317C861.627 410.215 860.771 412.916 860.771 416.424C860.771 419.968 861.627 422.706 863.339 424.639C865.051 426.572 867.299 427.538 870.081 427.538C872.222 427.538 874.006 427.036 875.433 426.035C876.859 425.033 877.841 423.6 878.376 421.74H883.62C882.836 424.746 881.265 427.162 878.911 428.988C876.556 430.778 873.613 431.672 870.081 431.672C867.299 431.672 864.819 431.046 862.643 429.793C860.503 428.54 858.826 426.768 857.613 424.478C856.401 422.188 855.794 419.503 855.794 416.424ZM902.907 431.672C900.16 431.672 897.663 431.046 895.416 429.793C893.203 428.54 891.456 426.768 890.171 424.478C888.922 422.151 888.299 419.466 888.299 416.424C888.299 413.418 888.941 410.769 890.225 408.478C891.544 406.151 893.329 404.38 895.576 403.163C897.824 401.91 900.339 401.284 903.121 401.284C905.904 401.284 908.419 401.91 910.666 403.163C912.914 404.38 914.68 406.135 915.964 408.425C917.283 410.715 917.944 413.383 917.944 416.424C917.944 419.466 917.265 422.151 915.91 424.478C914.589 426.768 912.788 428.54 910.506 429.793C908.222 431.046 905.69 431.672 902.907 431.672ZM902.907 427.377C904.655 427.377 906.295 426.966 907.83 426.142C909.364 425.318 910.594 424.083 911.522 422.438C912.486 420.792 912.967 418.787 912.967 416.424C912.967 414.062 912.502 412.057 911.576 410.411C910.648 408.765 909.436 407.547 907.937 406.76C906.439 405.937 904.815 405.526 903.068 405.526C901.283 405.526 899.643 405.937 898.145 406.76C896.681 407.547 895.504 408.765 894.613 410.411C893.72 412.057 893.275 414.062 893.275 416.424C893.275 418.822 893.703 420.845 894.559 422.491C895.451 424.137 896.628 425.372 898.091 426.196C899.553 426.983 901.158 427.377 902.907 427.377ZM959.609 401.23C961.893 401.23 963.927 401.714 965.709 402.68C967.493 403.611 968.903 405.024 969.937 406.922C970.972 408.819 971.488 411.128 971.488 413.847V431.189H966.672V414.545C966.672 411.611 965.942 409.373 964.478 407.834C963.052 406.259 961.107 405.472 958.646 405.472C956.114 405.472 954.097 406.296 952.599 407.942C951.101 409.552 950.351 411.896 950.351 414.975V431.189H945.535V414.545C945.535 411.611 944.805 409.373 943.342 407.834C941.915 406.259 939.97 405.472 937.509 405.472C934.977 405.472 932.96 406.296 931.462 407.942C929.964 409.552 929.215 411.896 929.215 414.975V431.189H924.345V401.767H929.215V406.009C930.178 404.47 931.462 403.289 933.067 402.465C934.71 401.642 936.511 401.23 938.472 401.23C940.934 401.23 943.111 401.786 945 402.895C946.892 404.004 948.301 405.633 949.228 407.781C950.049 405.705 951.405 404.094 953.295 402.949C955.186 401.803 957.291 401.23 959.609 401.23Z" fill="#333333"/>
</g>
<defs>
<linearGradient id="paint0_linear_748_295" x1="299.393" y1="2.81619" x2="163.677" y2="219.94" gradientUnits="userSpaceOnUse">
<stop stop-color="#45CF8C"/>
<stop offset="0.51" stop-color="#38BE7D"/>
<stop offset="1" stop-color="#0E874C"/>
</linearGradient>
<linearGradient id="paint1_linear_748_295" x1="-9.52464" y1="86.1786" x2="223.369" y2="225.618" gradientUnits="userSpaceOnUse">
<stop stop-color="#109A57"/>
<stop offset="0.59" stop-color="#0D8D4F"/>
<stop offset="0.81" stop-color="#07713E"/>
<stop offset="1" stop-color="#00552C"/>
</linearGradient>
</defs>
</svg>
